<svg width="513" height="142" viewBox="0 0 513 142" fill="none" xmlns="http://www.w3.org/2000/svg">
<path d="M234.111 45.3363H208.205V63.1986H233.198V73.7457H208.205V109.137H196.986V34.7893H234.111V45.3363Z" fill="#171717"/>
<path d="M295.804 34.7893V109.137H284.585V34.7893H295.804Z" fill="#171717"/>
<path d="M351.142 29.7354L405.362 86.4574V34.7893H416.581V113.664L362.361 57.0865V109.141H351.142V29.7354Z" fill="#171717"/>
<path d="M512.9 45.3363H483.094V63.1986H512.035V73.7457H483.094V98.5939H512.9V109.141H471.875V34.7893H512.9V45.3363Z" fill="#171717"/>
<path d="M0.899902 9.48441V131.759C0.899902 136.997 5.14593 141.243 10.3843 141.243H132.659C137.897 141.243 142.143 136.997 142.143 131.759V9.48441C142.143 4.24603 137.897 0 132.659 0H10.3843C5.14593 0 0.899902 4.24603 0.899902 9.48441ZM34.6881 123.332C25.9194 123.332 18.8105 116.224 18.8105 107.455C18.8105 98.6861 25.9194 91.5772 34.6881 91.5772C43.4568 91.5772 50.5657 98.6861 50.5657 107.455C50.5657 116.224 43.4568 123.332 34.6881 123.332ZM34.6881 86.5013C25.9194 86.5013 18.8105 79.3924 18.8105 70.6237C18.8105 61.855 25.9194 54.7461 34.6881 54.7461C43.4568 54.7461 50.5657 61.855 50.5657 70.6237C50.5657 79.3924 43.4568 86.5013 34.6881 86.5013ZM34.6881 49.6702C25.9194 49.6702 18.8105 42.5613 18.8105 33.7926C18.8105 25.0239 25.9194 17.915 34.6881 17.915C43.4568 17.915 50.5657 25.0239 50.5657 33.7926C50.5657 42.5613 43.4568 49.6702 34.6881 49.6702ZM71.5192 86.5013C62.7505 86.5013 55.6416 79.3924 55.6416 70.6237C55.6416 61.855 62.7505 54.7461 71.5192 54.7461C80.2879 54.7461 87.3968 61.855 87.3968 70.6237C87.3968 79.3924 80.2879 86.5013 71.5192 86.5013ZM71.5192 49.6702C62.7505 49.6702 55.6416 42.5613 55.6416 33.7926C55.6416 25.0239 62.7505 17.915 71.5192 17.915C80.2879 17.915 87.3968 25.0239 87.3968 33.7926C87.3968 42.5613 80.2879 49.6702 71.5192 49.6702ZM108.35 49.6702C99.5817 49.6702 92.4728 42.5613 92.4728 33.7926C92.4728 25.0239 99.5817 17.915 108.35 17.915C117.119 17.915 124.228 25.0239 124.228 33.7926C124.228 42.5613 117.119 49.6702 108.35 49.6702Z" fill="#171717"/>
</svg>
